<svg xmlns="http://www.w3.org/2000/svg" viewBox="0 0 137.2 154.69"><defs><style>.cls-1{fill:#3f2037;}.cls-2{fill:#734669;}.cls-3{fill:#ffb8a1;}.cls-4{fill:#fff7f1;}.cls-5{fill:#ff8a8a;}.cls-6{fill:#ff4f4e;}.cls-7{fill:#c42c31;}.cls-8{fill:#fff;}</style></defs><title>female1</title><g id="Layer_2" data-name="Layer 2"><g id="OBJECTS"><path class="cls-1" d="M137.2,154.69H0s.12-1.45.48-3.58c.19-1.07.44-2.3.76-3.62a36.87,36.87,0,0,1,2-5.9,21.77,21.77,0,0,1,1.64-3.06,10.74,10.74,0,0,1,4.8-4.27c1.71-.68,4.56-2,8-3.71l1.46-.72h0c.95-.46,1.92-.95,2.93-1.46l3.54-1.79c5.73-2.91,11.88-6.11,16.88-8.72l2.27-1.2h0l1.38-.72h0l6.58-3.48,1.05.24a65.42,65.42,0,0,0,29.59-.24s2.7,1.4,6.8,3.49l1.85.94.83.42h0c2.84,1.45,6.11,3.11,9.5,4.81,3,1.52,6.09,3.06,9.07,4.54l3.69,1.81c5.41,2.66,10.06,4.85,12.43,5.8a10.69,10.69,0,0,1,4.77,4.23A21,21,0,0,1,134,141.6a35.38,35.38,0,0,1,2,5.91c.32,1.29.57,2.51.75,3.56C137.08,153.23,137.2,154.69,137.2,154.69Z"/><path class="cls-2" d="M49,118.38a2.48,2.48,0,1,1-4.27-1.73h0l1.38-.72h0a2.6,2.6,0,0,1,.4,0A2.48,2.48,0,0,1,49,118.38Z"/><path class="cls-2" d="M60.05,118.38a2.49,2.49,0,1,1-2.49-2.48A2.49,2.49,0,0,1,60.05,118.38Z"/><path class="cls-2" d="M71.06,118.38a2.48,2.48,0,1,1-2.48-2.48A2.48,2.48,0,0,1,71.06,118.38Z"/><path class="cls-2" d="M82.08,118.38a2.48,2.48,0,1,1-2.48-2.48A2.48,2.48,0,0,1,82.08,118.38Z"/><path class="cls-2" d="M93.1,118.38a2.49,2.49,0,1,1-2.93-2.44l1.85.94.83.42h0A2.45,2.45,0,0,1,93.1,118.38Z"/><path class="cls-2" d="M27,128.8a2.49,2.49,0,0,1-5,0,3.13,3.13,0,0,1,0-.44l3.54-1.79A2.49,2.49,0,0,1,27,128.8Z"/><path class="cls-2" d="M38,128.8a2.48,2.48,0,1,1-2.48-2.48A2.48,2.48,0,0,1,38,128.8Z"/><path class="cls-2" d="M49,128.8a2.48,2.48,0,1,1-2.48-2.48A2.48,2.48,0,0,1,49,128.8Z"/><path class="cls-2" d="M60.05,128.8a2.49,2.49,0,1,1-2.49-2.48A2.49,2.49,0,0,1,60.05,128.8Z"/><path class="cls-2" d="M71.06,128.8a2.48,2.48,0,1,1-2.48-2.48A2.48,2.48,0,0,1,71.06,128.8Z"/><path class="cls-2" d="M82.08,128.8a2.48,2.48,0,1,1-2.48-2.48A2.48,2.48,0,0,1,82.08,128.8Z"/><path class="cls-2" d="M93.1,128.8a2.48,2.48,0,1,1-2.48-2.48A2.48,2.48,0,0,1,93.1,128.8Z"/><path class="cls-2" d="M104.11,128.8a2.48,2.48,0,1,1-2.48-2.48A2.48,2.48,0,0,1,104.11,128.8Z"/><path class="cls-2" d="M115.13,128.8a2.48,2.48,0,1,1-3.71-2.15l3.69,1.81C115.12,128.57,115.13,128.68,115.13,128.8Z"/><path class="cls-2" d="M5,139.22a2.49,2.49,0,0,1-1.74,2.37,21.77,21.77,0,0,1,1.64-3.06A2.26,2.26,0,0,1,5,139.22Z"/><path class="cls-2" d="M16,139.22a2.48,2.48,0,1,1-2.48-2.48A2.48,2.48,0,0,1,16,139.22Z"/><path class="cls-2" d="M27,139.22a2.48,2.48,0,1,1-2.48-2.48A2.48,2.48,0,0,1,27,139.22Z"/><path class="cls-2" d="M38,139.22a2.48,2.48,0,1,1-2.48-2.48A2.48,2.48,0,0,1,38,139.22Z"/><path class="cls-2" d="M49,139.22a2.48,2.48,0,1,1-2.48-2.48A2.48,2.48,0,0,1,49,139.22Z"/><path class="cls-2" d="M60.05,139.22a2.49,2.49,0,1,1-2.49-2.48A2.49,2.49,0,0,1,60.05,139.22Z"/><path class="cls-2" d="M71.06,139.22a2.48,2.48,0,1,1-2.48-2.48A2.48,2.48,0,0,1,71.06,139.22Z"/><path class="cls-2" d="M82.08,139.22a2.48,2.48,0,1,1-2.48-2.48A2.48,2.48,0,0,1,82.08,139.22Z"/><path class="cls-2" d="M93.1,139.22a2.48,2.48,0,1,1-2.48-2.48A2.48,2.48,0,0,1,93.1,139.22Z"/><path class="cls-2" d="M104.11,139.22a2.48,2.48,0,1,1-2.48-2.48A2.48,2.48,0,0,1,104.11,139.22Z"/><path class="cls-2" d="M115.13,139.22a2.48,2.48,0,1,1-2.48-2.48A2.48,2.48,0,0,1,115.13,139.22Z"/><path class="cls-2" d="M126.15,139.22a2.48,2.48,0,1,1-2.48-2.48A2.48,2.48,0,0,1,126.15,139.22Z"/><path class="cls-2" d="M134,141.6a2.48,2.48,0,0,1-1.67-3.11A21,21,0,0,1,134,141.6Z"/><path class="cls-2" d="M5,149.64a2.48,2.48,0,0,1-4.48,1.47c.19-1.07.44-2.3.76-3.62A2.48,2.48,0,0,1,5,149.64Z"/><path class="cls-2" d="M16,149.64a2.48,2.48,0,1,1-2.48-2.48A2.48,2.48,0,0,1,16,149.64Z"/><path class="cls-2" d="M27,149.64a2.48,2.48,0,1,1-2.48-2.48A2.48,2.48,0,0,1,27,149.64Z"/><path class="cls-2" d="M38,149.64a2.48,2.48,0,1,1-2.48-2.48A2.48,2.48,0,0,1,38,149.64Z"/><path class="cls-2" d="M49,149.64a2.48,2.48,0,1,1-2.48-2.48A2.48,2.48,0,0,1,49,149.64Z"/><path class="cls-2" d="M60.05,149.64a2.49,2.49,0,1,1-2.49-2.48A2.49,2.49,0,0,1,60.05,149.64Z"/><path class="cls-2" d="M71.06,149.64a2.48,2.48,0,1,1-2.48-2.48A2.48,2.48,0,0,1,71.06,149.64Z"/><path class="cls-2" d="M82.08,149.64a2.48,2.48,0,1,1-2.48-2.48A2.48,2.48,0,0,1,82.08,149.64Z"/><path class="cls-2" d="M93.1,149.64a2.48,2.48,0,1,1-2.48-2.48A2.48,2.48,0,0,1,93.1,149.64Z"/><path class="cls-2" d="M104.11,149.64a2.48,2.48,0,1,1-2.48-2.48A2.48,2.48,0,0,1,104.11,149.64Z"/><path class="cls-2" d="M115.13,149.64a2.48,2.48,0,1,1-2.48-2.48A2.48,2.48,0,0,1,115.13,149.64Z"/><path class="cls-2" d="M126.15,149.64a2.48,2.48,0,1,1-2.48-2.48A2.48,2.48,0,0,1,126.15,149.64Z"/><path class="cls-2" d="M136.71,151.07a2.48,2.48,0,1,1-.75-3.56C136.28,148.8,136.53,150,136.71,151.07Z"/><path class="cls-3" d="M89.84,115.77q-3.7,8.51-7.43,17-4.8,11-9.65,21.91H67.22c-4.22-7.28-8.55-14.5-12.81-21.76-1.72-2.93-3.44-5.87-5.13-8.82-1.44-2.52-2.83-5.06-4.15-7.65,4.53-2.38,7.6-4,7.6-4l1.05.24a65.42,65.42,0,0,0,29.59-.24Z"/><path class="cls-4" d="M82.41,132.78q-4.8,11-9.65,21.91H67.22c-4.22-7.28-8.55-14.5-12.81-21.76A51,51,0,0,0,82.41,132.78Z"/><path class="cls-3" d="M84.07,116S81.38,124.4,69,124.4c-14.42,0-17.81-7.69-17.81-7.69a62.68,62.68,0,0,0,2.69-9.14h0a50,50,0,0,0,1.15-11.42l25.33-1c.24,2.14.62,4.67,1.05,7.21C82.58,109.11,84.07,116,84.07,116Z"/><path class="cls-4" d="M69.18,128.31a19.89,19.89,0,0,1-15.33-7.12,24.43,24.43,0,0,1-4.33-7.12.5.5,0,1,1,.94-.34,24,24,0,0,0,4.17,6.83,18.62,18.62,0,0,0,14.55,6.75c13.73,0,17-13.39,17-13.52a.51.51,0,0,1,.6-.38.52.52,0,0,1,.38.61,21.47,21.47,0,0,1-3.5,7.14A17.46,17.46,0,0,1,69.18,128.31Z"/><path class="cls-1" d="M81.43,102.36c-3.93,2.73-12.51,6.79-27.53,5.21a50,50,0,0,0,1.15-11.42l25.33-1C80.62,97.29,81,99.82,81.43,102.36Z"/><path class="cls-3" d="M45.38,63.11s-7.84-10.67-13.94-4.36S37.1,87.07,47.77,82.28Z"/><circle class="cls-4" cx="38.77" cy="76.7" r="2.18"/><path class="cls-5" d="M42.12,75.72a.53.53,0,0,1-.53-.47c-1-7.41-6.93-12-7-12a.54.54,0,0,1-.1-.76.55.55,0,0,1,.76-.1,20.91,20.91,0,0,1,7.4,12.73.55.55,0,0,1-.46.61Z"/><path class="cls-5" d="M40.48,70.4a.56.56,0,0,1-.45-.24c-.79-1.17-3.14-1.28-4-1.23A.54.54,0,0,1,36,67.85c.15,0,3.66-.21,5,1.7a.53.53,0,0,1-.15.75A.49.49,0,0,1,40.48,70.4Z"/><path class="cls-3" d="M93.14,63.11s7.84-10.67,13.94-4.36-5.66,28.32-16.33,23.53Z"/><circle class="cls-4" cx="99.15" cy="76.7" r="2.18"/><path class="cls-5" d="M96.3,75.72h-.08a.55.55,0,0,1-.46-.61,20.86,20.86,0,0,1,7.4-12.73.54.54,0,1,1,.66.86c-.06,0-6,4.62-7,12A.53.53,0,0,1,96.3,75.72Z"/><path class="cls-5" d="M97.94,70.4a.47.47,0,0,1-.3-.1.53.53,0,0,1-.15-.75c1.29-1.91,4.79-1.71,4.94-1.7a.54.54,0,0,1,.51.57.54.54,0,0,1-.57.51c-.85-.05-3.2.07-4,1.23A.57.57,0,0,1,97.94,70.4Z"/><path class="cls-3" d="M72.79,31.12c-23.17-.68-34,11.72-32.25,37.31C41.63,84.32,50.19,103.66,69,104.1c19.62.46,28.55-21.79,29-38.23C98.43,48.58,94.33,37,80,32.32A60.23,60.23,0,0,0,72.79,31.12Z"/><path class="cls-6" d="M87.48,22.8c-.13.33-.27.66-.43,1a29.33,29.33,0,0,1-7.55,9.37H61.41s-6.49-3.58-9.87-9.39c-.18-.31-.35-.63-.51-1-2.36-4.7-2.52-10.72,4-17.39C68.08-7.79,94.69,5.13,87.48,22.8Z"/><path class="cls-7" d="M87.05,23.78a29.33,29.33,0,0,1-7.55,9.37H61.41s-6.49-3.58-9.87-9.39c2.11-1.29,9.7-3.88,17.23-2.08C68.77,21.68,78.65,19.19,87.05,23.78Z"/><path class="cls-6" d="M44.55,56S69.18,49.6,69.18,36.75c0,0,5.67,17.75,24.73,19.23L98,59.06a14.53,14.53,0,0,1,3.86-2.24S106.81,17.75,69.12,23c0,0-11.7-2.63-21.35,4.05-14,9.66-8.38,30.87-8.38,30.87Z"/><path class="cls-5" d="M52.37,73.4a.67.67,0,0,1-.67.67.68.68,0,1,1,.67-.67Z"/><path class="cls-5" d="M55.67,75a.68.68,0,1,1-.68-.68A.67.67,0,0,1,55.67,75Z"/><path class="cls-5" d="M52.37,77.37a.68.68,0,0,1-.67.68.69.69,0,0,1-.68-.68.68.68,0,0,1,.68-.67A.67.67,0,0,1,52.37,77.37Z"/><path class="cls-5" d="M57.55,78.05a.67.67,0,0,1-.67.67.68.68,0,1,1,.67-.67Z"/><path class="cls-5" d="M61,77.37a.69.69,0,0,1-.68.68.68.68,0,0,1-.67-.68.67.67,0,0,1,.67-.67A.68.68,0,0,1,61,77.37Z"/><path class="cls-5" d="M59.44,74.07a.69.69,0,0,1-.68.68.68.68,0,0,1-.67-.68.67.67,0,0,1,.67-.67A.68.68,0,0,1,59.44,74.07Z"/><path class="cls-5" d="M86.72,73.4a.68.68,0,1,0,.68-.68A.67.67,0,0,0,86.72,73.4Z"/><path class="cls-5" d="M83.43,75a.67.67,0,0,0,.67.67.68.68,0,1,0-.67-.67Z"/><path class="cls-5" d="M86.72,77.37a.68.68,0,1,0,1.35,0,.68.68,0,0,0-1.35,0Z"/><path class="cls-5" d="M81.54,78.05a.68.68,0,1,0,.68-.68A.67.67,0,0,0,81.54,78.05Z"/><path class="cls-5" d="M78.09,77.37a.68.68,0,1,0,.67-.67A.67.67,0,0,0,78.09,77.37Z"/><path class="cls-5" d="M79.66,74.07a.68.68,0,1,0,.67-.67A.67.67,0,0,0,79.66,74.07Z"/><path class="cls-6" d="M41.46,73s4.64-9.79,3.09-17l-6.09-3.87S39.41,66.93,41.46,73Z"/><path class="cls-6" d="M97,73s-4.64-9.79-3.1-17L99,54.5S99.75,66.88,97,73Z"/><path class="cls-6" d="M50,61.3a13.82,13.82,0,0,1,5.5-5.75C60.89,52.2,64.76,58,64.76,58s-4.21-1.47-7.45-.44A36.82,36.82,0,0,0,50,61.3Z"/><path class="cls-6" d="M89.59,61.3a13.82,13.82,0,0,0-5.5-5.75C78.72,52.2,74.85,58,74.85,58s4.21-1.47,7.45-.44A36.82,36.82,0,0,1,89.59,61.3Z"/><path class="cls-5" d="M70.58,81.89a7.71,7.71,0,0,1-3.07-.73.75.75,0,0,1-.45-.78l1.57-12a.75.75,0,1,1,1.49.19L68.62,80a3.9,3.9,0,0,0,3.75-.14.75.75,0,1,1,.84,1.24A4.53,4.53,0,0,1,70.58,81.89Z"/><path class="cls-5" d="M69.09,89.85a17.66,17.66,0,0,1-1.85-.1A17.18,17.18,0,0,1,61.31,88,.75.75,0,0,1,62,86.66h0c.36.21,8.94,4.84,16.37-2a.76.76,0,0,1,1.06,0,.75.75,0,0,1,0,1.06A14.85,14.85,0,0,1,69.09,89.85Z"/><path class="cls-5" d="M70.4,94.25a11.93,11.93,0,0,1-3.24-.45.75.75,0,1,1,.44-1.44c.05,0,3.48,1,5.89-.32a.77.77,0,0,1,1,.29.75.75,0,0,1-.29,1A7.83,7.83,0,0,1,70.4,94.25Z"/><path class="cls-1" d="M60.28,65.83c0,2.1-.73,3.81-1.72,3.83S56.74,68,56.7,65.9s.74-3.81,1.73-3.83S60.25,63.74,60.28,65.83Z"/><path class="cls-1" d="M79,65.83c0,2.1.74,3.81,1.72,3.83S82.54,68,82.58,65.9s-.73-3.81-1.72-3.83S79,63.74,79,65.83Z"/><path class="cls-8" d="M56.57,80.52A11.56,11.56,0,1,1,68.13,69,11.57,11.57,0,0,1,56.57,80.52Zm0-22.12A10.56,10.56,0,1,0,67.13,69,10.58,10.58,0,0,0,56.57,58.4Z"/><path class="cls-8" d="M82.58,80.52A11.56,11.56,0,1,1,94.14,69,11.57,11.57,0,0,1,82.58,80.52Zm0-22.12A10.56,10.56,0,1,0,93.14,69,10.58,10.58,0,0,0,82.58,58.4Z"/><path class="cls-8" d="M46.82,64.24a.52.52,0,0,1-.43-.24s-3.23-5.2-8.1-7a.5.5,0,1,1,.35-.93c5.2,2,8.47,7.24,8.6,7.46a.5.5,0,0,1-.16.69A.48.48,0,0,1,46.82,64.24Z"/><path class="cls-8" d="M93.22,64.24a.53.53,0,0,1-.27-.08.5.5,0,0,1-.15-.69c.15-.24,3.77-5.73,9-7.7a.52.52,0,0,1,.65.3.5.5,0,0,1-.29.64C97.24,58.56,93.68,64,93.64,64A.51.51,0,0,1,93.22,64.24Z"/><path class="cls-8" d="M71.52,67.89a.51.51,0,0,1-.5-.45A1.57,1.57,0,0,0,69.48,66,1.49,1.49,0,0,0,68,67.42a.5.5,0,1,1-1-.06A2.46,2.46,0,0,1,69.48,65,2.56,2.56,0,0,1,72,67.34a.5.5,0,0,1-.45.55Z"/></g></g></svg>