<svg xmlns="http://www.w3.org/2000/svg" viewBox="0 0 137.2 138.74"><defs><style>.cls-1{fill:#3f2037;}.cls-2{fill:#ff4f4e;}.cls-3{fill:#c42c31;}.cls-4{fill:#ffb8a1;}.cls-5{fill:#fff7f1;}.cls-6{fill:#ff8a8a;}</style></defs><title>female3</title><g id="Layer_2" data-name="Layer 2"><g id="OBJECTS"><path class="cls-1" d="M45.28,8.84S30.17,21.93,29.55,43.52s11.11,30.86.22,40.13S-5.34,103,9.34,128H69.18V13.31Z"/><path class="cls-1" d="M92.5,8.84s15.11,13.09,15.74,34.68S97.12,74.38,108,83.65,143.13,103,128.44,128H68.6V13.31Z"/><path class="cls-2" d="M137.2,138.74H0s1.38-17.12,9.66-20.43c1.71-.69,4.56-2,8-3.71l1.46-.72h0c7.17-3.55,16.39-8.33,23.35-12,5.94-3.11,10.24-5.39,10.24-5.39l1.05.23a65.28,65.28,0,0,0,29.59-.23L92,100.93c3,1.54,6.61,3.36,10.33,5.23,10,5,21.05,10.49,25.19,12.15C135.82,121.62,137.2,138.74,137.2,138.74Z"/><path class="cls-3" d="M31.14,138.74H27.48c-2.84-6.25-7.58-17-9.81-24.14l1.46-.72C20.78,118.08,26.17,131.41,31.14,138.74Z"/><path class="cls-3" d="M103.57,138.74h3.66c2.84-6.25,8-18,10.28-25.06l-1.33-.64C114.54,117.24,108.54,131.41,103.57,138.74Z"/><path class="cls-2" d="M61.4,138.74h-30c-5.05-7.51-9.73-18.4-12.3-24.87-1.3-3.28-2.07-5.42-2.07-5.42,7.73-6.12,25.42-6.56,25.42-6.56C48.79,110.33,56.91,128.28,61.4,138.74Z"/><path class="cls-2" d="M73.59,138.74h30c5-7.51,9.72-18.4,12.29-24.87,1.31-3.28,2.07-5.42,2.07-5.42-7.73-6.12-25.9-7.52-25.9-7.52C85.73,109.37,78.08,128.28,73.59,138.74Z"/><path class="cls-4" d="M92,100.93a122.75,122.75,0,0,1-2.59,14.81c-2.26,9.29-6.16,19.48-12.73,23H65.88c-9-3.75-15.22-14.53-19-23.71a102.38,102.38,0,0,1-4.39-13.14c5.94-3.11,10.24-5.39,10.24-5.39l1.05.23a65.28,65.28,0,0,0,29.59-.23Z"/><path class="cls-5" d="M89.43,115.74c-2.26,9.29-6.16,19.48-12.73,23H65.88c-9-3.75-15.22-14.53-19-23.71,4.74,2,11.81,3.74,21.81,3.74A66.72,66.72,0,0,0,89.43,115.74Z"/><path class="cls-4" d="M84.07,100s-2.69,8.46-15.06,8.46c-14.42,0-17.81-7.69-17.81-7.69a63,63,0,0,0,2.69-9.14h0A50.09,50.09,0,0,0,55.05,80.2l25.33-1c.24,2.15.62,4.68,1.05,7.22C82.58,93.15,84.07,100,84.07,100Z"/><path class="cls-5" d="M69.18,112.36a19.87,19.87,0,0,1-15.33-7.13,24.45,24.45,0,0,1-4.33-7.11.5.5,0,0,1,.94-.34,23.84,23.84,0,0,0,4.17,6.82,18.59,18.59,0,0,0,14.55,6.76,16.27,16.27,0,0,0,13.7-6.72,20.39,20.39,0,0,0,3.35-6.81.52.52,0,0,1,.61-.37.51.51,0,0,1,.37.6,21.47,21.47,0,0,1-3.5,7.15A17.46,17.46,0,0,1,69.18,112.36Z"/><path class="cls-1" d="M81.43,86.41C77.5,89.14,68.92,93.2,53.9,91.62A50.09,50.09,0,0,0,55.05,80.2l25.33-1C80.62,81.34,81,83.87,81.43,86.41Z"/><path class="cls-4" d="M45.38,47.16S37.54,36.49,31.44,42.8,37.1,71.12,47.77,66.32Z"/><path class="cls-6" d="M42.12,59.77a.54.54,0,0,1-.53-.47c-1-7.41-6.93-12-7-12a.54.54,0,1,1,.66-.86,20.87,20.87,0,0,1,7.4,12.72.54.54,0,0,1-.46.61Z"/><path class="cls-6" d="M40.48,54.44a.55.55,0,0,1-.45-.23c-.79-1.17-3.14-1.29-4-1.23a.54.54,0,0,1-.57-.51.55.55,0,0,1,.5-.58c.15,0,3.66-.2,5,1.71a.54.54,0,0,1-.15.75A.55.55,0,0,1,40.48,54.44Z"/><path class="cls-5" d="M42.93,66.81a2.85,2.85,0,0,1-.46-.12,2.27,2.27,0,0,1-2.14-.16c-1.81-1.27-.24-4.34-.22-4.38a.57.57,0,0,0-1-.53c-.08.16-2.07,4,.57,5.85a3.25,3.25,0,0,0,1.87.57,3.56,3.56,0,0,0,1.91-.55,3,3,0,0,0,.61-.5C43.67,66.93,43.31,66.86,42.93,66.81Z"/><path class="cls-4" d="M93.14,47.16S101,36.49,107.08,42.8s-5.66,28.32-16.33,23.52Z"/><path class="cls-6" d="M96.3,59.77h-.08a.54.54,0,0,1-.46-.61,20.82,20.82,0,0,1,7.4-12.72.54.54,0,0,1,.76.1.55.55,0,0,1-.1.76c-.06.05-6,4.61-7,12A.54.54,0,0,1,96.3,59.77Z"/><path class="cls-6" d="M97.94,54.44a.53.53,0,0,1-.3-.09.54.54,0,0,1-.15-.75c1.29-1.91,4.8-1.72,4.94-1.71a.55.55,0,0,1-.06,1.09c-.84-.06-3.2.07-4,1.23A.56.56,0,0,1,97.94,54.44Z"/><path class="cls-5" d="M95.59,66.81a2.6,2.6,0,0,0,.46-.12,2.27,2.27,0,0,0,2.14-.16c1.81-1.27.24-4.34.22-4.38a.57.57,0,0,1,1-.53c.08.16,2.07,4-.57,5.85A3.25,3.25,0,0,1,97,68a3.56,3.56,0,0,1-1.91-.55,3,3,0,0,1-.61-.5C94.85,66.93,95.21,66.86,95.59,66.81Z"/><path class="cls-4" d="M72.79,15.16c-23.17-.67-34,11.72-32.25,37.32C41.64,68.37,50.19,87.71,69,88.15c19.62.46,28.55-21.8,29-38.24.45-17.29-3.65-28.85-18-33.54A62.31,62.31,0,0,0,72.79,15.16Z"/><path class="cls-6" d="M52.37,57.44a.67.67,0,0,1-.67.68.68.68,0,1,1,0-1.35A.67.67,0,0,1,52.37,57.44Z"/><path class="cls-6" d="M55.67,59.07A.68.68,0,1,1,55,58.4.67.67,0,0,1,55.67,59.07Z"/><path class="cls-6" d="M52.37,61.42a.67.67,0,0,1-.67.67.68.68,0,0,1-.68-.67.69.69,0,0,1,.68-.68A.68.68,0,0,1,52.37,61.42Z"/><path class="cls-6" d="M57.55,62.09a.67.67,0,0,1-.67.68.68.68,0,1,1,0-1.35A.67.67,0,0,1,57.55,62.09Z"/><path class="cls-6" d="M61,61.42a.68.68,0,0,1-.68.67.67.67,0,0,1-.67-.67.68.68,0,0,1,.67-.68A.69.69,0,0,1,61,61.42Z"/><path class="cls-6" d="M59.44,58.12a.68.68,0,0,1-.68.67.67.67,0,0,1-.67-.67.68.68,0,0,1,.67-.68A.69.69,0,0,1,59.44,58.12Z"/><path class="cls-6" d="M86.72,57.44a.68.68,0,1,0,.68-.67A.67.67,0,0,0,86.72,57.44Z"/><path class="cls-6" d="M83.43,59.07a.67.67,0,0,0,.67.68.68.68,0,1,0,0-1.35A.67.67,0,0,0,83.43,59.07Z"/><path class="cls-6" d="M86.72,61.42a.68.68,0,1,0,.68-.68A.68.68,0,0,0,86.72,61.42Z"/><path class="cls-6" d="M81.54,62.09a.68.68,0,1,0,.68-.67A.67.67,0,0,0,81.54,62.09Z"/><path class="cls-6" d="M78.09,61.42a.68.68,0,0,0,1.35,0,.68.68,0,1,0-1.35,0Z"/><path class="cls-6" d="M79.66,58.12a.68.68,0,0,0,1.35,0,.68.68,0,1,0-1.35,0Z"/><path class="cls-1" d="M41.46,57s4.64-9.79,3.09-17l-5.06-1.47S38.71,50.93,41.46,57Z"/><path class="cls-1" d="M97,57s-4.64-9.79-3.1-17L99,38.55S99.75,50.93,97,57Z"/><path class="cls-1" d="M45.28,8.84C39.67,14.39,35.29,23.48,35,29s1.15,11.21,5.36,13.35c13.18,6.71,40.44-18.5,40.44-18.5S90.41,43.43,98,42.5s10.8-23-7.23-35.29S53.9.33,45.28,8.84Z"/><path class="cls-1" d="M50,45.35a13.8,13.8,0,0,1,5.5-5.76C60.89,36.24,64.76,42,64.76,42s-4.21-1.47-7.45-.44A36.82,36.82,0,0,0,50,45.35Z"/><path class="cls-1" d="M89.6,45.35a13.88,13.88,0,0,0-5.51-5.76C78.72,36.24,74.85,42,74.85,42s4.21-1.47,7.45-.44A37,37,0,0,1,89.6,45.35Z"/><path class="cls-6" d="M70.58,65.94a7.71,7.71,0,0,1-3.07-.73.75.75,0,0,1-.45-.79l1.57-12a.75.75,0,1,1,1.49.19L68.62,64a3.92,3.92,0,0,0,3.75-.14.75.75,0,1,1,.84,1.24A4.61,4.61,0,0,1,70.58,65.94Z"/><path class="cls-6" d="M69.09,73.9a15.22,15.22,0,0,1-1.85-.11A17,17,0,0,1,61.31,72,.75.75,0,0,1,62,70.71h0c.36.2,8.94,4.84,16.37-2a.75.75,0,1,1,1,1.1A14.85,14.85,0,0,1,69.09,73.9Z"/><path class="cls-6" d="M70.4,78.3a11.72,11.72,0,0,1-3.24-.46.75.75,0,0,1-.5-.94.76.76,0,0,1,.94-.49c.05,0,3.48,1,5.89-.32a.75.75,0,1,1,.74,1.31A7.83,7.83,0,0,1,70.4,78.3Z"/><path class="cls-1" d="M60.28,49.88c0,2.1-.73,3.81-1.72,3.82S56.74,52,56.7,49.94s.74-3.8,1.73-3.82S60.25,47.79,60.28,49.88Z"/><path class="cls-1" d="M79,49.88c0,2.1.74,3.81,1.72,3.82s1.82-1.66,1.86-3.76-.73-3.8-1.72-3.82S79,47.79,79,49.88Z"/></g></g></svg>