<svg xmlns="http://www.w3.org/2000/svg" viewBox="0 0 137.2 153.08"><defs><style>.cls-1{fill:#ff9a40;}.cls-2{fill:#e96d17;}.cls-3{fill:#ffb8a1;}.cls-4{fill:#3f2037;}.cls-5{fill:#ff8a8a;}.cls-6{opacity:0.5;}.cls-7{fill:#fff;}</style></defs><title>male3</title><g id="Layer_2" data-name="Layer 2"><g id="OBJECTS"><path class="cls-1" d="M31.21,126.38S21,117.81,27.05,103.83s23.62-16,40.56-16.06c25.85,0,56.72,8.89,36.12,38.61C103.73,126.38,78.09,143.34,31.21,126.38Z"/><path class="cls-2" d="M56.7,109.63a.77.77,0,0,1-.73-.54c-1.89-5.85-7.11-9.52-7.16-9.56a.77.77,0,0,1,.88-1.27,22.29,22.29,0,0,1,7.75,10.36.77.77,0,0,1-.5,1A.67.67,0,0,1,56.7,109.63Z"/><path class="cls-2" d="M67.66,120a.78.78,0,0,1-.65-.36c-6.74-10.5-26.79-13.54-27-13.57a.77.77,0,1,1,.22-1.53c.85.13,20.95,3.17,28.07,14.26a.77.77,0,0,1-.23,1.07A.72.72,0,0,1,67.66,120Z"/><path class="cls-1" d="M137.2,153.08H0S1.38,136,9.66,132.65c3.35-1.34,11-5.15,19-9.23,11.12-5.69,22.79-11.89,24-12.52l.1-.06,1.05.24c1.31.29,2.62.55,3.94.75s2.62.39,3.93.51a65.13,65.13,0,0,0,21.68-1.49h0s9,4.63,19,9.66l3.88,2c8.84,4.43,17.7,8.76,21.31,10.2C135.82,136,137.2,153.08,137.2,153.08Z"/><path class="cls-2" d="M75,131.3a43.81,43.81,0,0,1-18.26-4,41.3,41.3,0,0,1-11.21-7.36.71.71,0,0,1,0-1,.72.72,0,0,1,1,0A40.9,40.9,0,0,0,57.36,126a42.18,42.18,0,0,0,28.45,2.46.72.72,0,1,1,.36,1.4A44.49,44.49,0,0,1,75,131.3Z"/><path class="cls-2" d="M71.41,138.25a39.09,39.09,0,0,1-8-.84.72.72,0,0,1,.29-1.42C78,139,86.89,132.72,87,132.65a.71.71,0,0,1,1,.17.72.72,0,0,1-.16,1C87.51,134.05,81.51,138.25,71.41,138.25Z"/><path class="cls-3" d="M84.07,114.34S81.38,122.8,69,122.8c-14.42,0-17.81-7.69-17.81-7.69A62.78,62.78,0,0,0,53.89,106h0a50,50,0,0,0,1.15-11.42l25.33-1c.24,2.14.62,4.67,1.05,7.21C82.57,107.5,84.07,114.34,84.07,114.34Z"/><path class="cls-4" d="M81.43,100.75c-3.93,2.73-12.51,6.79-27.53,5.21a50,50,0,0,0,1.15-11.42l25.33-1C80.62,95.68,81,98.21,81.43,100.75Z"/><path class="cls-3" d="M45.38,61.5s-7.84-10.67-13.94-4.35S37.1,85.46,47.77,80.67Z"/><path class="cls-5" d="M41.64,74.11a.54.54,0,0,1-.54-.46c-1-7.42-6.92-12-7-12a.54.54,0,0,1,.65-.87,20.86,20.86,0,0,1,7.4,12.73.53.53,0,0,1-.46.61Z"/><path class="cls-5" d="M40,68.79a.52.52,0,0,1-.45-.24c-.79-1.16-3.14-1.28-4-1.23a.54.54,0,1,1-.07-1.08c.15,0,3.65-.21,4.94,1.7a.55.55,0,0,1-.14.76A.55.55,0,0,1,40,68.79Z"/><path class="cls-3" d="M93.14,61.5s7.84-10.67,13.94-4.35-5.66,28.31-16.33,23.52Z"/><path class="cls-5" d="M96.88,74.11h-.07a.53.53,0,0,1-.46-.61,20.86,20.86,0,0,1,7.4-12.73.54.54,0,0,1,.65.87c-.06,0-6,4.61-7,12A.54.54,0,0,1,96.88,74.11Z"/><path class="cls-5" d="M98.52,68.79a.55.55,0,0,1-.3-.09.55.55,0,0,1-.14-.76c1.29-1.91,4.79-1.71,4.94-1.7a.54.54,0,1,1-.07,1.08c-.84,0-3.19.07-4,1.23A.52.52,0,0,1,98.52,68.79Z"/><path class="cls-3" d="M75.87,30.39C53.94,25,34.09,44.87,39,66.9c3.5,15.54,11.16,35.15,30,35.59,19.62.47,27.49-20.9,30.29-37.1A30.44,30.44,0,0,0,78.91,31.26C77.92,30.94,76.91,30.65,75.87,30.39Z"/><path class="cls-5" d="M70.58,80.31a7.75,7.75,0,0,1-3.08-.74.75.75,0,0,1-.46-.8l1.57-12a.77.77,0,0,1,.86-.67.78.78,0,0,1,.67.87L68.65,78.37a3.83,3.83,0,0,0,3.7-.15.79.79,0,0,1,1.08.21.78.78,0,0,1-.21,1.08A4.64,4.64,0,0,1,70.58,80.31Z"/><path class="cls-5" d="M69.14,88.25a17.91,17.91,0,0,1-7.84-1.86.77.77,0,0,1-.3-1,.76.76,0,0,1,1-.3c.38.21,8.93,4.82,16.34-2a.77.77,0,0,1,1,1.14A14.78,14.78,0,0,1,69.14,88.25Z"/><path class="cls-5" d="M70.4,92.67a11.92,11.92,0,0,1-3.25-.46.77.77,0,0,1-.51-1,.78.78,0,0,1,1-.51h0s3.46,1,5.87-.31a.78.78,0,0,1,1.06.29.77.77,0,0,1-.3,1.05A7.77,7.77,0,0,1,70.4,92.67Z"/><path class="cls-4" d="M54.08,58.32A20.85,20.85,0,0,1,60.53,56a2,2,0,0,0,1.64-2.67l-.09-.24A2,2,0,0,0,60,51.75c-2.11.22-5.84,1-8.28,3.39a2,2,0,0,0-.49,2h0A2,2,0,0,0,54.08,58.32Z"/><path class="cls-4" d="M86.06,58.32A20.85,20.85,0,0,0,79.61,56,2,2,0,0,1,78,53.31l.09-.24a2,2,0,0,1,2.1-1.32c2.11.22,5.84,1,8.28,3.39a2,2,0,0,1,.49,2h0A2,2,0,0,1,86.06,58.32Z"/><g class="cls-6"><path class="cls-5" d="M59.74,72.22c0,1.9-3.5,3.43-7.82,3.43s-7.82-1.53-7.82-3.43,3.5-3.43,7.82-3.43S59.74,70.33,59.74,72.22Z"/></g><g class="cls-6"><path class="cls-5" d="M96.52,72.22c0,1.9-3.5,3.43-7.82,3.43s-7.82-1.53-7.82-3.43,3.5-3.43,7.82-3.43S96.52,70.33,96.52,72.22Z"/></g><path class="cls-4" d="M39.85,70.28S35.73,47.59,37,42.4s3.94-4.24,3.94-4.24S18.72,20,29.77,9.62c8-7.47,17.2,8.52,17.2,8.52S42.41,2.42,48.89.26C57-2.43,60.62,16.41,60.62,16.41S60,2.36,66.51,2.63c9.1.39,4,10.9,13.84,15s24.77,6.18,19.4,22.71c0,0,7.24-.31-1.77,29.19h0a17.69,17.69,0,0,1-3.3-11.14c.15-3,.14-6.59-.49-8.76,0,0-5.64-3.94-5.38-9.7,0,0-19.87,11.79-38.19,1.28,0,0,1.15,6.79-4.61,7.81A39.88,39.88,0,0,0,43.5,59.73,23.6,23.6,0,0,1,40,70Z"/><path class="cls-4" d="M97.91,30s3.14-10.71,8.21-8c3.61,2-4.81,10.11-4.81,10.11s7.09-3.84,10.58-1.13-5.78,5.89-11.13,5S97.91,30,97.91,30Z"/><path class="cls-4" d="M60.28,64.23c0,2.09-.73,3.8-1.72,3.82s-1.82-1.67-1.86-3.76.74-3.81,1.73-3.82S60.25,62.13,60.28,64.23Z"/><path class="cls-4" d="M79,64.23c0,2.09.74,3.8,1.72,3.82s1.82-1.67,1.86-3.76-.73-3.81-1.72-3.82S79,62.13,79,64.23Z"/><path class="cls-7" d="M48.55,131.56v21.52H47V131.56a.81.81,0,0,1,.15-.46.79.79,0,0,1,1.4.46Z"/><path class="cls-7" d="M91.52,131.56v21.52H90V131.56a.78.78,0,0,1,.78-.77.77.77,0,0,1,.73.53A.64.64,0,0,1,91.52,131.56Z"/></g></g></svg>