<svg xmlns="http://www.w3.org/2000/svg" viewBox="0 0 137.2 143.31"><defs><style>.cls-1{fill:#ff4f4e;}.cls-2{fill:#c42c31;}.cls-3{fill:#fff7f1;}.cls-4{fill:#ffb8a1;}.cls-5{fill:#3f2037;}.cls-6{fill:#ff8a8a;}.cls-7{opacity:0.5;}.cls-8{fill:#734669;}</style></defs><title>male1</title><g id="Layer_2" data-name="Layer 2"><g id="OBJECTS"><path class="cls-1" d="M137.2,143.31H0s1.38-17.12,9.66-20.43c3.35-1.34,11-5.16,19-9.23l8.77-4.53.89-.47,6.44-3.36c4.26-2.24,7.31-3.86,7.89-4.17l.1-.05,1,.23c1.32.3,2.64.55,4,.76s2.61.38,3.93.51a65.6,65.6,0,0,0,21.67-1.49h0s3.22,1.66,8,4.07l6.57,3.34.9.46,3.55,1.79,3.88,2c8.84,4.42,17.7,8.75,21.31,10.2C135.82,126.19,137.2,143.31,137.2,143.31Z"/><path class="cls-2" d="M98.8,108.94c-.47,1.37-1,2.77-1.63,4.17a34.71,34.71,0,0,1-9.59,13.11,27.31,27.31,0,0,1-17.71,6c-14.35,0-23.21-8.41-28.11-15.46a51.39,51.39,0,0,1-4.35-7.62l.89-.47a50,50,0,0,0,4.3,7.55c6.93,10,16.11,15,27.27,15,12,0,20.93-6.22,26.38-18.49.63-1.42,1.18-2.84,1.65-4.23Z"/><path class="cls-3" d="M91.33,105.14c-1.73,7.44-8.27,18.75-22.73,18.75-15.87,0-21.83-12.84-23.86-18.6,4.26-2.24,7.31-3.86,7.89-4.17l.1-.05,1,.23c1.32.3,2.64.55,4,.76s2.61.38,3.93.51a65.6,65.6,0,0,0,21.67-1.49h0S86.59,102.73,91.33,105.14Z"/><path class="cls-4" d="M84.07,104.56S81.38,113,69,113c-14.42,0-17.81-7.69-17.81-7.69a63,63,0,0,0,2.69-9.14h0a50.09,50.09,0,0,0,1.15-11.42l25.33-1c.24,2.15.62,4.68,1.05,7.22C82.58,97.72,84.07,104.56,84.07,104.56Z"/><path class="cls-5" d="M81.43,91c-3.93,2.73-12.51,6.79-27.53,5.21a50.09,50.09,0,0,0,1.15-11.42l25.33-1C80.62,85.91,81,88.44,81.43,91Z"/><path class="cls-4" d="M45.38,51.73s-7.84-10.67-13.94-4.36S37.1,75.69,47.77,70.89Z"/><path class="cls-6" d="M41.64,64.34a.55.55,0,0,1-.54-.47c-1-7.41-6.92-12-7-12a.54.54,0,0,1,.65-.86,20.86,20.86,0,0,1,7.41,12.72.54.54,0,0,1-.47.61Z"/><path class="cls-6" d="M40,59a.53.53,0,0,1-.45-.23c-.79-1.17-3.14-1.29-4-1.23A.53.53,0,0,1,35,57a.54.54,0,0,1,.5-.58c.15,0,3.65-.2,4.94,1.71a.53.53,0,0,1-.14.75A.55.55,0,0,1,40,59Z"/><path class="cls-4" d="M93.14,51.73s7.84-10.67,13.94-4.36-5.66,28.32-16.33,23.52Z"/><path class="cls-6" d="M96.88,64.34h-.07a.53.53,0,0,1-.46-.61A20.82,20.82,0,0,1,103.75,51a.54.54,0,1,1,.65.86c-.06,0-6,4.61-7,12A.55.55,0,0,1,96.88,64.34Z"/><path class="cls-6" d="M98.52,59a.55.55,0,0,1-.3-.09.53.53,0,0,1-.14-.75c1.29-1.91,4.79-1.71,4.94-1.71a.55.55,0,0,1,.51.58.55.55,0,0,1-.58.51c-.84,0-3.19.07-4,1.23A.53.53,0,0,1,98.52,59Z"/><path class="cls-4" d="M74.27,18.63C51.92,18.62,38,30.2,40.54,56.78,42,72.65,50.19,92.28,69,92.72c19.62.46,27.49-20.9,30.29-37.11,2.57-14.83-5-31.27-19.28-36A31.58,31.58,0,0,0,74.27,18.63Z"/><path class="cls-5" d="M40.28,51.93s-2.6-25.19-2.68-30.78C37.42,7.57,51.12,0,71.23,0,87.44,0,89.44,7.14,90.75,12.88c0,0,12,.31,13.82,8.67s-5.79,33.6-5.79,33.6A82.55,82.55,0,0,1,94.41,41C92.58,32.62,90.2,27.51,85,27.4s-11.75.16-18.81,4.34-14.1,4.7-19.07,1C47.09,32.78,45.77,45.4,40.28,51.93Z"/><g class="cls-7"><path class="cls-6" d="M59.74,62.45c0,1.89-3.5,3.43-7.82,3.43s-7.82-1.54-7.82-3.43S47.6,59,51.92,59,59.74,60.55,59.74,62.45Z"/></g><g class="cls-7"><path class="cls-6" d="M96.52,62.45c0,1.89-3.5,3.43-7.82,3.43s-7.82-1.54-7.82-3.43S84.38,59,88.7,59,96.52,60.55,96.52,62.45Z"/></g><path class="cls-5" d="M99.45,51.93a142.27,142.27,0,0,1-3.82,27.7c-5.86,24.73-26,21.44-26,21.44S50,104.36,44.1,79.63a142.27,142.27,0,0,1-3.82-27.7l3.21-5.36s2.25,21.31,10.41,25c0,0,3.62-5.51,15.77-.36,12.15-5.15,16.17.36,16.17.36,8.16-3.69,10.41-25,10.41-25Z"/><path class="cls-6" d="M70.58,69.12a7.75,7.75,0,0,1-3.08-.74.75.75,0,0,1-.46-.81l1.57-12a.77.77,0,0,1,.86-.67.78.78,0,0,1,.67.87L68.65,67.18A3.9,3.9,0,0,0,72.36,67a.77.77,0,0,1,.86,1.28A4.57,4.57,0,0,1,70.58,69.12Z"/><path class="cls-8" d="M69.14,78.47a17.91,17.91,0,0,1-7.84-1.86.77.77,0,0,1-.3-1,.78.78,0,0,1,1-.3c.38.21,8.94,4.82,16.34-2a.77.77,0,1,1,1,1.13A14.78,14.78,0,0,1,69.14,78.47Z"/><path class="cls-8" d="M70.4,82.89a12.13,12.13,0,0,1-3.25-.45.78.78,0,0,1-.51-1,.77.77,0,0,1,1-.51h0s3.46,1,5.87-.32a.78.78,0,0,1,1.06.29.77.77,0,0,1-.3,1.06A7.86,7.86,0,0,1,70.4,82.89Z"/><path class="cls-5" d="M54.08,48.55a20.6,20.6,0,0,1,6.45-2.34,2,2,0,0,0,1.64-2.67l-.09-.25A2,2,0,0,0,60,42c-2.11.22-5.84,1-8.28,3.39a2,2,0,0,0-.49,2h0A2,2,0,0,0,54.08,48.55Z"/><path class="cls-5" d="M86.06,48.55a20.6,20.6,0,0,0-6.45-2.34A2,2,0,0,1,78,43.54l.09-.25A2,2,0,0,1,80.16,42c2.11.22,5.84,1,8.28,3.39a2,2,0,0,1,.49,2h0A2,2,0,0,1,86.06,48.55Z"/><path class="cls-5" d="M60.28,54.45c0,2.1-.73,3.81-1.72,3.82s-1.82-1.66-1.86-3.76.74-3.8,1.73-3.82S60.25,52.36,60.28,54.45Z"/><path class="cls-5" d="M79,54.45c0,2.1.74,3.81,1.72,3.82s1.83-1.66,1.86-3.76-.73-3.8-1.72-3.82S79,52.36,79,54.45Z"/></g></g></svg>