<svg xmlns="http://www.w3.org/2000/svg" viewBox="0 0 137.2 138.11"><defs><style>.cls-1{fill:#3f2037;}.cls-2{fill:#0075cf;}.cls-3{fill:#0056a8;}.cls-4{fill:#ffb8a1;}.cls-5{fill:#ff8a8a;}.cls-6{fill:#ff4f4e;}.cls-7{fill:#c42c31;}.cls-8{opacity:0.5;}</style></defs><title>male2</title><g id="Layer_2" data-name="Layer 2"><g id="OBJECTS"><path class="cls-1" d="M41.66,63.61S37.49,74.14,39.83,77.7s6.86-3.52,6.86-3.52S43.08,87.06,48.1,88.35s10.39-9.78,10.39-9.78S48.88,59,41.66,63.61Z"/><path class="cls-1" d="M95.84,63.61S100,74.14,97.67,77.7s-6.85-3.52-6.85-3.52,3.61,12.88-1.42,14.17S79,78.57,79,78.57,88.63,59,95.84,63.61Z"/><path class="cls-2" d="M137.2,138.11H0s.12-1.54.52-3.8c.14-.76.3-1.6.51-2.5a38.82,38.82,0,0,1,1.58-5.3A26.71,26.71,0,0,1,3.69,124a14.46,14.46,0,0,1,4.16-5.31,8.46,8.46,0,0,1,1.81-1c.86-.34,2-.85,3.38-1.49,2.86-1.33,6.68-3.21,10.82-5.31,1.56-.78,3.16-1.6,4.78-2.43l.13-.07c3.49-1.78,7-3.61,10.27-5.31l3.09-1.61,1.69-.89.26-.13c4.44-2.33,7.71-4.07,8.47-4.48h0l.07,0,.1-.06,1.05.24c1.31.3,2.62.55,3.94.76s2.62.38,3.93.51a65.4,65.4,0,0,0,21.68-1.5h0l8,4.12,1.14.58,4.92,2.5,4.88,2.47,3.88,1.94c.6.31,1.2.6,1.8.9,1.7.86,3.4,1.7,5,2.5,4.24,2.09,8.15,4,11.05,5.31,1.39.64,2.56,1.15,3.42,1.49a8.46,8.46,0,0,1,1.81,1,14.46,14.46,0,0,1,4.16,5.31,26.71,26.71,0,0,1,1.08,2.51,38.82,38.82,0,0,1,1.58,5.3c.2.9.37,1.74.51,2.5C137.08,136.57,137.2,138.11,137.2,138.11Z"/><path class="cls-3" d="M97.47,103.07H39l4.78-2.5H92.55Z"/><path class="cls-3" d="M113.07,110.88H23.86c1.56-.78,3.16-1.6,4.78-2.43l.13-.07H108C109.73,109.24,111.43,110.08,113.07,110.88Z"/><path class="cls-3" d="M129.35,118.69H7.85a8.46,8.46,0,0,1,1.81-1c.86-.34,2-.85,3.38-1.49H124.12c1.39.64,2.56,1.15,3.42,1.49A8.46,8.46,0,0,1,129.35,118.69Z"/><path class="cls-3" d="M134.59,126.51H2.61A26.71,26.71,0,0,1,3.69,124H133.51A26.71,26.71,0,0,1,134.59,126.51Z"/><path class="cls-3" d="M136.68,134.31H.52c.14-.76.3-1.6.51-2.5H136.17C136.37,132.71,136.54,133.55,136.68,134.31Z"/><path class="cls-3" d="M91.41,100c-1.57,5.54-8.37,14.25-22.81,14.25-14.94,0-23.22-8.07-26.47-12.78l1.69-.89.26-.13c4.44-2.33,7.71-4.07,8.47-4.48h0l.07,0,.1-.06,1.05.24c1.31.3,2.62.55,3.94.76s2.62.38,3.93.51a65.4,65.4,0,0,0,21.68-1.5h0Z"/><path class="cls-4" d="M84.07,99.37s-2.69,8.46-15.06,8.46c-14.42,0-17.81-7.69-17.81-7.69A62.78,62.78,0,0,0,53.89,91h0a50,50,0,0,0,1.15-11.41l25.33-1c.24,2.15.62,4.67,1.05,7.21C82.57,92.53,84.07,99.37,84.07,99.37Z"/><path class="cls-1" d="M81.43,85.78C77.5,88.51,68.92,92.58,53.9,91a50,50,0,0,0,1.15-11.41l25.33-1C80.62,80.72,81,83.24,81.43,85.78Z"/><path class="cls-4" d="M45.38,46.53s-7.84-10.67-13.94-4.35S37.1,70.49,47.77,65.7Z"/><path class="cls-5" d="M41.64,59.15a.55.55,0,0,1-.54-.47c-1-7.42-6.92-12-7-12a.54.54,0,1,1,.65-.86,20.86,20.86,0,0,1,7.41,12.72.54.54,0,0,1-.47.61Z"/><path class="cls-5" d="M40,53.82a.52.52,0,0,1-.45-.24c-.79-1.16-3.14-1.28-4-1.23a.55.55,0,0,1-.58-.5.55.55,0,0,1,.51-.58c.15,0,3.65-.2,4.94,1.71a.54.54,0,0,1-.14.75A.55.55,0,0,1,40,53.82Z"/><path class="cls-4" d="M93.87,46.53s7.84-10.67,13.94-4.35S102.15,70.49,91.47,65.7Z"/><path class="cls-5" d="M97.61,59.15h-.08a.54.54,0,0,1-.46-.61,20.87,20.87,0,0,1,7.4-12.72.53.53,0,0,1,.76.1.54.54,0,0,1-.1.76c-.06,0-6,4.61-7,12A.55.55,0,0,1,97.61,59.15Z"/><path class="cls-5" d="M99.25,53.82a.55.55,0,0,1-.3-.09A.55.55,0,0,1,98.8,53c1.3-1.91,4.8-1.72,5-1.71a.54.54,0,0,1-.07,1.08c-.84-.05-3.2.07-4,1.23A.52.52,0,0,1,99.25,53.82Z"/><path class="cls-4" d="M75.87,15.43C53.94,10.07,38.77,26.26,40.8,51.26,42.09,67.14,50.19,87.08,69,87.53,88.63,88,98.87,69.15,98.87,47.16c0-16.82-5.65-26.18-20-30.87C77.92,16,76.91,15.68,75.87,15.43Z"/><path class="cls-1" d="M37.77,28.4s-4.34,10-2.78,11.84c1.34,1.53,3.38.48,3.38.48s-.84,11,3.81,11.39S46.25,32,46.25,32s7.69.21,6.24-6.16c0,0,19.93,3.79,35.3-.26,0,0-.64,6.14,4.55,7,0,0-3,18.64,2.49,20s5.23-11.45,5.23-11.45,2.42,0,3.36-.91C105.68,38,102,25.91,96,18,89.33,9.36,56.27-7.07,37.77,28.4Z"/><path class="cls-6" d="M103.1,26.07s-1.46-.33-4.1-.76l-.81-.13c-2.69-.42-6.39-.92-10.87-1.31l-.79-.07c-3.2-.26-6.77-.47-10.64-.56h-.78c-3.33-.07-6.87,0-10.57.12l-.77,0c-3.45.17-7,.44-10.69.86l-.79.09q-5.38.65-11,1.73l-.81.16c-1.4.28-2.81.59-4.22.93,0,0,1.65-11.77,11.14-19.81.52-.44,1.05-.87,1.62-1.28A30,30,0,0,1,58.4,1.48l.94-.26A37.22,37.22,0,0,1,66,.13h0l.79-.06C67.6,0,68.47,0,69.37,0c1.23,0,2.41,0,3.55.13l.8.07a38,38,0,0,1,6.66,1.18l1,.27h0a31.06,31.06,0,0,1,9.42,4.66h0a20,20,0,0,1,1.59,1.26h0A33.27,33.27,0,0,1,103.1,26.07Z"/><path class="cls-7" d="M49.06,6.06c-3.12,5.32-6.57,12.53-7.73,20a34.26,34.26,0,0,0-.41,4.16l-.77,0a33.27,33.27,0,0,1,.37-4c1-6.93,4-13.64,6.92-18.88C48,6.9,48.49,6.47,49.06,6.06Z"/><path class="cls-7" d="M59.34,1.22a93.77,93.77,0,0,0-6.26,23,56.87,56.87,0,0,0-.44,6h-.77a57.5,57.5,0,0,1,.42-5.87A94.26,94.26,0,0,1,58.4,1.48Z"/><path class="cls-7" d="M66.75.07C66.13,4.46,65,13.5,64.54,23.35c-.1,2.26-.17,4.56-.18,6.86h-.77c0-2.28.08-4.57.18-6.82C64.21,13.6,65.33,4.6,66,.13h0Z"/><path class="cls-7" d="M76.08,30.2H75.3c0-2.34-.08-4.69-.19-7-.45-9.76-1.57-18.71-2.19-23.1l.8.07c.62,4.47,1.73,13.36,2.17,23C76,25.53,76.06,27.87,76.08,30.2Z"/><path class="cls-7" d="M87.79,30.2H87a57.25,57.25,0,0,0-.49-6.41A94.14,94.14,0,0,0,80.38,1.38l1,.27h0a94.81,94.81,0,0,1,6,22.22A60.64,60.64,0,0,1,87.79,30.2Z"/><path class="cls-7" d="M99.51,30.2l-.77,0a34.37,34.37,0,0,0-.55-5c-1.27-7-4.47-13.78-7.43-18.86a20,20,0,0,1,1.59,1.26h0A59,59,0,0,1,99,25.31,35,35,0,0,1,99.51,30.2Z"/><path class="cls-7" d="M34.65,27.15S32.82,31,35,36.77c0,0,21.88-13.09,69.16-.85,0,0,3-3.35,0-9.41C104.15,26.51,67.66,10.51,34.65,27.15Z"/><path class="cls-5" d="M70.58,65.34a7.72,7.72,0,0,1-3.08-.73A.77.77,0,0,1,67,63.8l1.57-12a.77.77,0,0,1,1.53.2L68.65,63.4a3.85,3.85,0,0,0,3.7-.14.77.77,0,1,1,.87,1.28A4.64,4.64,0,0,1,70.58,65.34Z"/><path class="cls-5" d="M69.14,73.28a17.91,17.91,0,0,1-7.84-1.86.77.77,0,0,1,.75-1.35c.38.21,8.93,4.82,16.34-2a.77.77,0,1,1,1,1.13A14.78,14.78,0,0,1,69.14,73.28Z"/><path class="cls-5" d="M70.4,77.7a11.92,11.92,0,0,1-3.25-.46.77.77,0,1,1,.46-1.47h0s3.46,1,5.87-.32a.78.78,0,0,1,1.06.29.77.77,0,0,1-.3,1.05A7.77,7.77,0,0,1,70.4,77.7Z"/><path class="cls-1" d="M54.08,43.36A20.86,20.86,0,0,1,60.53,41a2,2,0,0,0,1.64-2.67l-.09-.24A2,2,0,0,0,60,36.78c-2.11.22-5.84,1-8.28,3.39a2,2,0,0,0-.49,2h0A2,2,0,0,0,54.08,43.36Z"/><path class="cls-1" d="M86.06,43.36A20.86,20.86,0,0,0,79.61,41,2,2,0,0,1,78,38.34l.09-.24a2,2,0,0,1,2.1-1.32c2.11.22,5.84,1,8.28,3.39a2,2,0,0,1,.49,2h0A2,2,0,0,1,86.06,43.36Z"/><g class="cls-8"><path class="cls-5" d="M59.74,57.25c0,1.9-3.5,3.44-7.82,3.44s-7.82-1.54-7.82-3.44,3.5-3.43,7.82-3.43S59.74,55.36,59.74,57.25Z"/></g><g class="cls-8"><path class="cls-5" d="M96.52,57.25c0,1.9-3.5,3.44-7.82,3.44s-7.82-1.54-7.82-3.44,3.5-3.43,7.82-3.43S96.52,55.36,96.52,57.25Z"/></g><path class="cls-1" d="M60.28,49.26c0,2.09-.73,3.8-1.72,3.82s-1.82-1.66-1.86-3.76.74-3.8,1.73-3.82S60.25,47.16,60.28,49.26Z"/><path class="cls-1" d="M79,49.26c0,2.09.74,3.8,1.72,3.82s1.82-1.66,1.86-3.76-.73-3.8-1.72-3.82S79,47.16,79,49.26Z"/></g></g></svg>